# xmcd CD database file
#
# Track frame offsets:
#	150
#	25617
#	56539
#	78658
#	100330
#	102830
#	131727
#	150144
#	186458
#	200360
#	201605
#	225512
#	250621
#	281253
#	297820
#	324357
#
# Disc length: 4603 seconds
#
# Revision: 5
# Processed by: cddbd v1.5PL3 Copyright (c) Steve Scherf et al.
# Submitted via: CDex 1.50Beta5
#
DISCID=d511f910
DTITLE=Various Artist - Cafe'dge3
DYEAR=1900
DGENRE=J-pop
TTITLE0=COULD I
TTITLE1=IT'S YOU(it's MURO Mix)
TTITLE2=DREAM COME TRUE
TTITLE3=PRIVATE ROOTS
TTITLE4=INTERLUDE
TTITLE5=I KNOW A PLACE
TTITLE6=光みるほうへ
TTITLE7=LOVE EACH OTHER
TTITLE8=DIRTY LARRY(IDJUT BOYSCLASSICAL JAZZ MIX"DJ TOOL")
TTITLE9=INTERLUDE
TTITLE10=AILE ALEGRIA
TTITLE11=NUPHONK
TTITLE12=EARTH IS THE PLASE
TTITLE13=A.P.B
TTITLE14=ESCAPE
TTITLE15=LADBROKE GROOVE(DUB MIX)
EXTD=
EXTT0=
EXTT1=
EXTT2=
EXTT3=
EXTT4=
EXTT5=
EXTT6=
EXTT7=
EXTT8=
EXTT9=
EXTT10=
EXTT11=
EXTT12=
EXTT13=
EXTT14=
EXTT15=
PLAYORDER=
